<?xml version="1.0" encoding="UTF-8" standalone="no"?>
<!-- Generator: Adobe Illustrator 19.0.0, SVG Export Plug-In . SVG Version: 6.00 Build 0)  -->

<svg
   xmlns:dc="http://purl.org/dc/elements/1.1/"
   xmlns:cc="http://creativecommons.org/ns#"
   xmlns:rdf="http://www.w3.org/1999/02/22-rdf-syntax-ns#"
   xmlns:svg="http://www.w3.org/2000/svg"
   xmlns="http://www.w3.org/2000/svg"
   xmlns:sodipodi="http://sodipodi.sourceforge.net/DTD/sodipodi-0.dtd"
   xmlns:inkscape="http://www.inkscape.org/namespaces/inkscape"
   version="1.1"
   id="Layer_1"
   x="0px"
   y="0px"
   viewBox="0 0 108.5 91.8"
   style="enable-background:new 0 0 108.5 91.8;"
   xml:space="preserve"
   inkscape:version="0.91 r13725"
   sodipodi:docname="quote.svg"><metadata
     id="metadata13"><rdf:RDF><cc:Work
         rdf:about=""><dc:format>image/svg+xml</dc:format><dc:type
           rdf:resource="http://purl.org/dc/dcmitype/StillImage" /><dc:title></dc:title></cc:Work></rdf:RDF></metadata><defs
     id="defs11" /><sodipodi:namedview
     pagecolor="#ffffff"
     bordercolor="#666666"
     borderopacity="1"
     objecttolerance="10"
     gridtolerance="10"
     guidetolerance="10"
     inkscape:pageopacity="0"
     inkscape:pageshadow="2"
     inkscape:window-width="1916"
     inkscape:window-height="1058"
     id="namedview9"
     showgrid="false"
     inkscape:zoom="5.141612"
     inkscape:cx="81.738215"
     inkscape:cy="10.285676"
     inkscape:window-x="0"
     inkscape:window-y="18"
     inkscape:window-maximized="0"
     inkscape:current-layer="g3" /><g
     id="g3"><path
       d="M37.5,0h-25C9,0,6.1,1.2,3.6,3.6C1.2,6.1,0,9,0,12.5v25C0,41,1.2,44,3.6,46.4c2.4,2.4,5.4,3.6,8.9,3.6h14.6   c1.7,0,3.2,0.6,4.4,1.8c1.2,1.2,1.8,2.7,1.8,4.4v2.1c0,4.6-1.6,8.5-4.9,11.8c-3.3,3.3-7.2,4.9-11.8,4.9h-4.2   c-1.1,0-2.1,0.4-2.9,1.2c-0.8,0.8-1.2,1.8-1.2,2.9v8.3c0,1.1,0.4,2.1,1.2,2.9c0.8,0.8,1.8,1.2,2.9,1.2h4.2c4.5,0,8.8-0.9,12.9-2.6   c4.1-1.8,7.7-4.1,10.7-7.1c3-3,5.4-6.6,7.1-10.7c1.8-4.1,2.6-8.4,2.6-12.9V12.5c0-3.5-1.2-6.4-3.7-8.9C44,1.2,41,0,37.5,0L37.5,0z    M37.5,0"
       id="path5"
       style="fill:#808284;fill-opacity:1;opacity:0.8" /><path
       d="M104.8,3.6C102.4,1.2,99.4,0,95.9,0h-25c-3.5,0-6.4,1.2-8.9,3.6c-2.4,2.4-3.6,5.4-3.6,8.9v25c0,3.5,1.2,6.4,3.6,8.9   c2.4,2.4,5.4,3.6,8.9,3.6h14.6c1.7,0,3.2,0.6,4.4,1.8c1.2,1.2,1.8,2.7,1.8,4.4v2.1c0,4.6-1.6,8.5-4.9,11.8   c-3.3,3.3-7.2,4.9-11.8,4.9h-4.2c-1.1,0-2.1,0.4-2.9,1.2c-0.8,0.8-1.2,1.8-1.2,2.9v8.3c0,1.1,0.4,2.1,1.2,2.9   c0.8,0.8,1.8,1.2,2.9,1.2h4.2c4.5,0,8.8-0.9,12.9-2.6c4.1-1.8,7.7-4.1,10.7-7.1c3-3,5.4-6.6,7.1-10.7c1.8-4.1,2.6-8.4,2.6-12.9   V12.5C108.5,9,107.2,6.1,104.8,3.6L104.8,3.6z M104.8,3.6"
       id="path7"
       style="fill:#808284;fill-opacity:1;opacity:0.8" /><path
       style="fill:#808283;fill-opacity:0;opacity:0.804"
       d="m 68.067875,90.118398 -1.137027,-1.137025 0,-5.700099 0,-5.7001 1.080053,-1.08005 c 1.031478,-1.031478 1.289523,-1.089149 5.737501,-1.282267 5.579803,-0.242255 8.287285,-1.077024 11.444892,-3.528672 4.344111,-3.372879 6.63247,-8.18381 6.63247,-13.94377 0,-3.726093 -0.824471,-5.649135 -3.002527,-7.003275 -1.420832,-0.883357 -1.814229,-0.921014 -11.584338,-1.108901 -9.793304,-0.188334 -10.17305,-0.224879 -11.992258,-1.154148 -2.309085,-1.179505 -4.31614,-3.346433 -5.545978,-5.987752 l -0.93086,-1.999202 -0.0038,-15.594439 -0.0038,-15.594439 1.209659,-2.4207431 c 0.825993,-1.6529575 1.821041,-2.9040122 3.137278,-3.9444375 3.294142,-2.60386991 4.060071,-2.70568856 20.353487,-2.70568856 17.388652,0 17.380332,-0.001448 21.047672,3.66588956 3.89901,3.8990114 3.7159,2.1824801 3.5585,33.3584516 -0.13271,26.287612 -0.14365,26.605874 -1.01394,29.491763 -2.72997,9.05267 -8.292801,16.121414 -16.032594,20.372774 -5.24067,2.878626 -10.506395,4.133159 -17.348354,4.133159 -4.420787,0 -4.481278,-0.01225 -5.606037,-1.137029 z"
       id="path3343"
       inkscape:connector-curvature="0" /><path
       style="opacity:0.80400002;fill:#808283;fill-opacity:0"
       d="M 11.438922,90.950184 C 10.998423,90.797158 10.166971,90.296677 9.5912524,89.838004 L 8.54449,89.004055 l 0.021522,-5.778763 0.021522,-5.778764 1.1134936,-0.878351 c 0.9098975,-0.717748 1.8839085,-0.944369 5.3269955,-1.239413 2.317425,-0.198583 4.782389,-0.535038 5.477696,-0.747676 0.695307,-0.212634 1.264195,-0.289874 1.264195,-0.171643 0,0.118232 0.218803,0.03337 0.486229,-0.188567 0.267426,-0.221942 0.57375,-0.392733 0.68072,-0.379535 0.560686,0.06919 1.944915,-0.583665 1.944915,-0.917288 0,-0.212151 0.162368,-0.285381 0.360818,-0.162731 0.660382,0.408137 4.927233,-3.974376 6.206755,-6.375004 0.686189,-1.287425 1.239623,-2.432553 1.229853,-2.544731 -0.0098,-0.112179 -0.0044,-0.24772 0.012,-0.301206 0.319696,-1.044602 0.452928,-2.268872 0.573285,-5.267931 0.124111,-3.092587 0.02725,-3.840784 -0.670519,-5.179488 C 31.733338,51.441812 30.639476,50.524905 29.111769,50.174085 28.60377,50.057429 24.599766,49.80883 20.213982,49.621644 9.9912304,49.185337 7.9829443,48.990344 6.6870648,48.308262 5.4795559,47.672691 2.2155788,44.383252 1.6342413,43.216018 0.61544317,41.170434 0.3904442,37.754812 0.36634647,23.968589 L 0.34114079,9.5485026 1.571243,7.2405945 C 2.7465649,5.0354647 6.3081879,1.2386133 6.7690604,1.6994857 6.8897841,1.8202093 6.9886814,1.7585276 6.9888324,1.5624153 6.9889837,1.366303 7.4649741,1.1782143 8.0465897,1.1444404 8.628205,1.1106665 9.1550316,0.93015544 9.2173152,0.7433047 9.2802211,0.5545858 16.495547,0.4521834 25.449736,0.51292859 l 16.119179,0.10935251 1.683943,1.1364796 c 1.558554,1.0518561 5.604771,5.0873412 5.100871,5.0873412 -0.122343,0 0.06493,0.4385827 0.416161,0.9746282 0.576469,0.8798031 0.637111,3.5065129 0.62331,26.9976829 -0.01513,25.754341 -0.19127,30.175985 -1.330085,33.389767 -0.322194,0.909248 -0.493549,1.653178 -0.380787,1.653178 0.112763,0 -0.07005,0.275066 -0.406238,0.61126 -0.546016,0.546015 -0.790278,1.366828 -0.657323,2.208867 0.02532,0.160456 -0.139311,0.291738 -0.365878,0.291738 -0.226567,0 -0.312995,0.160094 -0.192068,0.35576 0.120931,0.195666 0.07536,0.414469 -0.101268,0.486229 -0.176629,0.07176 -1.088254,1.268244 -2.025835,2.658858 -2.274559,3.373612 -8.285622,9.296489 -9.792368,9.64871 -0.279099,0.06524 -0.699803,0.368845 -0.934897,0.674671 -0.235094,0.305831 -0.541418,0.44208 -0.68072,0.302777 -0.139302,-0.139303 -0.253276,-0.03873 -0.253276,0.223494 0,0.262225 -0.160931,0.37731 -0.357623,0.255749 -0.196693,-0.121565 -0.634299,0.05565 -0.972458,0.39381 -0.338159,0.338159 -0.614834,0.522653 -0.614834,0.409988 0,-0.112665 -1.141772,0.224918 -2.53727,0.750181 -1.395499,0.525267 -2.883359,0.955028 -3.306356,0.955028 -0.422998,0 -0.769087,0.131281 -0.769087,0.291737 0,0.160455 -0.481366,0.304605 -1.069703,0.320331 -0.588337,0.01572 -3.170212,0.140929 -5.7375,0.278228 -2.567288,0.137303 -5.028205,0.124436 -5.468704,-0.02859 z"
       id="path4145"
       inkscape:connector-curvature="0" /><path
       style="opacity:0.80400002;fill:#808283;fill-opacity:0"
       d="m 68.879681,90.740557 c -1.670093,-0.975888 -1.959207,-2.057005 -1.973948,-7.381354 -0.02031,-7.337166 0.49914,-8.047574 5.892636,-8.058835 8.609936,-0.01797 14.379468,-3.335101 17.578959,-10.106807 1.033341,-2.187061 1.214822,-3.05981 1.344321,-6.464898 0.178722,-4.699394 -0.377948,-6.270372 -2.786914,-7.864942 L 87.371141,49.82873 77.228791,49.634239 67.086441,49.439747 65.017498,48.293648 c -2.310052,-1.279665 -3.913998,-2.932166 -5.222101,-5.380181 -0.870812,-1.62966 -0.8776,-1.768729 -0.8776,-17.979653 0,-16.284804 0.0029,-16.3426508 0.891306,-18.0065177 1.163669,-2.1793064 3.559702,-4.4766319 5.840896,-5.6002719 1.817488,-0.89523344 1.894771,-0.89914303 17.773731,-0.89914303 15.880937,0 15.956019,0.0038 17.77453,0.89953093 2.33089,1.1481072 4.68376,3.5009858 5.83187,5.8318708 l 0.89953,1.8262257 0.11655,25.4783902 c 0.12531,27.395035 0.0194,29.420307 -1.8071,34.576693 -3.61001,10.191022 -10.926654,17.253169 -21.453939,20.707689 -3.2832,1.077382 -4.324394,1.230629 -9.335594,1.374059 -4.356722,0.1247 -5.85181,0.03781 -6.569896,-0.381783 z"
       id="path4147"
       inkscape:connector-curvature="0" /></g></svg>