<?xml version="1.0" encoding="UTF-8" standalone="no"?>
<svg
   xmlns:dc="http://purl.org/dc/elements/1.1/"
   xmlns:cc="http://creativecommons.org/ns#"
   xmlns:rdf="http://www.w3.org/1999/02/22-rdf-syntax-ns#"
   xmlns:svg="http://www.w3.org/2000/svg"
   xmlns="http://www.w3.org/2000/svg"
   xmlns:xlink="http://www.w3.org/1999/xlink"
   height="28.799999"
   width="215.60001"
   xml:space="preserve"
   enable-background="new 0 0 358 126"
   viewBox="0 0 215.60001 28.799999"
   y="0px"
   x="0px"
   id="Layer_1"
   fill="#666"
   version="1.1"><metadata
     id="metadata197"><rdf:RDF><cc:Work
         rdf:about=""><dc:format>image/svg+xml</dc:format><dc:type
           rdf:resource="http://purl.org/dc/dcmitype/StillImage" /><dc:title></dc:title></cc:Work></rdf:RDF></metadata><defs
     id="defs195"><defs
       id="defs7"><rect
         height="99"
         width="332"
         y="15.5"
         x="16.299999"
         id="SVGID_1_" /></defs><clipPath
       id="SVGID_2_"><use
         height="100%"
         width="100%"
         y="0"
         x="0"
         style="overflow:visible"
         id="use11"
         overflow="visible"
         xlink:href="#SVGID_1_" /></clipPath><defs
       id="defs15"><rect
         id="SVGID_3_"
         x="16.299999"
         y="15.5"
         width="332"
         height="100" /></defs><clipPath
       id="SVGID_4_"><use
         xlink:href="#SVGID_3_"
         overflow="visible"
         id="use19"
         style="overflow:visible"
         x="0"
         y="0"
         width="100%"
         height="100%" /></clipPath><defs
       id="defs25"><rect
         id="SVGID_5_"
         x="16.299999"
         y="15.5"
         width="332"
         height="99" /></defs><clipPath
       id="SVGID_6_"><use
         xlink:href="#SVGID_5_"
         overflow="visible"
         id="use29"
         style="overflow:visible"
         x="0"
         y="0"
         width="100%"
         height="100%" /></clipPath></defs><g
     transform="translate(-74.9,-50.9)"
     clip-path="url(#SVGID_6_)"
     id="g49"><defs
       id="defs51"><polygon
         id="SVGID_11_"
         points="74.9,79.6 80.5,79.6 82.6,69.9 86.4,66.8 92.7,79.7 99.7,79.7 91.2,63 106.2,50.9 98,50.9 84.2,62.3 86.6,50.9 80.9,50.9 " /></defs><clipPath
       id="SVGID_12_"><use
         xlink:href="#SVGID_11_"
         overflow="visible"
         id="use55"
         style="overflow:visible"
         x="0"
         y="0"
         width="100%"
         height="100%" /></clipPath><g
       clip-path="url(#SVGID_12_)"
       id="g57"><defs
         id="defs59"><rect
           id="SVGID_13_"
           x="16.299999"
           y="15.5"
           width="332"
           height="100" /></defs><clipPath
         id="SVGID_14_"><use
           xlink:href="#SVGID_13_"
           overflow="visible"
           id="use63"
           style="overflow:visible"
           x="0"
           y="0"
           width="100%"
           height="100%" /></clipPath><rect
         x="64.900002"
         y="40.900002"
         clip-path="url(#SVGID_14_)"
         width="51.299999"
         height="48.799999"
         id="rect65" /></g></g><g
     transform="translate(-74.9,-50.9)"
     clip-path="url(#SVGID_6_)"
     id="g67"><defs
       id="defs69"><polygon
         id="SVGID_15_"
         points="101.8,79.6 107.8,79.6 119.7,59 122.5,79.6 128.6,79.6 124.3,50.9 118.7,50.9 " /></defs><clipPath
       id="SVGID_16_"><use
         xlink:href="#SVGID_15_"
         overflow="visible"
         id="use73"
         style="overflow:visible"
         x="0"
         y="0"
         width="100%"
         height="100%" /></clipPath><g
       clip-path="url(#SVGID_16_)"
       id="g75"><defs
         id="defs77"><rect
           id="SVGID_17_"
           x="16.299999"
           y="15.5"
           width="332"
           height="100" /></defs><clipPath
         id="SVGID_18_"><use
           xlink:href="#SVGID_17_"
           overflow="visible"
           id="use81"
           style="overflow:visible"
           x="0"
           y="0"
           width="100%"
           height="100%" /></clipPath><rect
         x="91.800003"
         y="40.900002"
         clip-path="url(#SVGID_18_)"
         width="46.799999"
         height="48.700001"
         id="rect83" /></g></g><g
     transform="translate(-74.9,-50.9)"
     clip-path="url(#SVGID_6_)"
     id="g85"><defs
       id="defs87"><polygon
         id="SVGID_19_"
         points="142,79.6 147.1,56.1 156.1,56.1 157.2,50.9 133.3,50.9 132.2,56.1 141.3,56.1 136.2,79.6 " /></defs><clipPath
       id="SVGID_20_"><use
         xlink:href="#SVGID_19_"
         overflow="visible"
         id="use91"
         style="overflow:visible"
         x="0"
         y="0"
         width="100%"
         height="100%" /></clipPath><g
       clip-path="url(#SVGID_20_)"
       id="g93"><defs
         id="defs95"><rect
           id="SVGID_21_"
           x="16.299999"
           y="15.5"
           width="332"
           height="100" /></defs><clipPath
         id="SVGID_22_"><use
           xlink:href="#SVGID_21_"
           overflow="visible"
           id="use99"
           style="overflow:visible"
           x="0"
           y="0"
           width="100%"
           height="100%" /></clipPath><rect
         x="122.2"
         y="40.900002"
         clip-path="url(#SVGID_22_)"
         width="45"
         height="48.700001"
         id="rect101" /></g></g><g
     transform="translate(-74.9,-50.9)"
     clip-path="url(#SVGID_6_)"
     id="g103"><defs
       id="defs105"><polygon
         id="SVGID_23_"
         points="150.1,79.6 156.1,79.6 168,59 170.8,79.6 176.9,79.6 172.6,50.9 167,50.9 " /></defs><clipPath
       id="SVGID_24_"><use
         xlink:href="#SVGID_23_"
         overflow="visible"
         id="use109"
         style="overflow:visible"
         x="0"
         y="0"
         width="100%"
         height="100%" /></clipPath><g
       clip-path="url(#SVGID_24_)"
       id="g111"><defs
         id="defs113"><rect
           id="SVGID_25_"
           x="16.299999"
           y="15.5"
           width="332"
           height="100" /></defs><clipPath
         id="SVGID_26_"><use
           xlink:href="#SVGID_25_"
           overflow="visible"
           id="use117"
           style="overflow:visible"
           x="0"
           y="0"
           width="100%"
           height="100%" /></clipPath><rect
         x="140.10001"
         y="40.900002"
         clip-path="url(#SVGID_26_)"
         width="46.799999"
         height="48.700001"
         id="rect119" /></g></g><g
     transform="translate(-74.9,-50.9)"
     clip-path="url(#SVGID_6_)"
     id="g121"><defs
       id="defs123"><polygon
         id="SVGID_27_"
         points="180.6,79.6 186.3,79.6 188.3,69.9 192.2,66.8 198.5,79.7 205.5,79.7 197.1,63 212,50.9 203.8,50.9 189.9,62.3 192.3,50.9 186.7,50.9 " /></defs><clipPath
       id="SVGID_28_"><use
         xlink:href="#SVGID_27_"
         overflow="visible"
         id="use127"
         style="overflow:visible"
         x="0"
         y="0"
         width="100%"
         height="100%" /></clipPath><g
       clip-path="url(#SVGID_28_)"
       id="g129"><defs
         id="defs131"><rect
           id="SVGID_29_"
           x="16.299999"
           y="15.5"
           width="332"
           height="100" /></defs><clipPath
         id="SVGID_30_"><use
           xlink:href="#SVGID_29_"
           overflow="visible"
           id="use135"
           style="overflow:visible"
           x="0"
           y="0"
           width="100%"
           height="100%" /></clipPath><rect
         x="170.60001"
         y="40.900002"
         clip-path="url(#SVGID_30_)"
         width="51.400002"
         height="48.799999"
         id="rect137" /></g></g><g
     transform="translate(-74.9,-50.9)"
     clip-path="url(#SVGID_6_)"
     id="g139"><defs
       id="defs141"><polygon
         id="SVGID_31_"
         points="213.7,79.6 225.5,59 228.3,79.6 234.4,79.6 230.1,50.9 224.5,50.9 207.6,79.6 " /></defs><clipPath
       id="SVGID_32_"><use
         xlink:href="#SVGID_31_"
         overflow="visible"
         id="use145"
         style="overflow:visible"
         x="0"
         y="0"
         width="100%"
         height="100%" /></clipPath><g
       clip-path="url(#SVGID_32_)"
       id="g147"><defs
         id="defs149"><rect
           id="SVGID_33_"
           x="16.299999"
           y="15.5"
           width="332"
           height="100" /></defs><clipPath
         id="SVGID_34_"><use
           xlink:href="#SVGID_33_"
           overflow="visible"
           id="use153"
           style="overflow:visible"
           x="0"
           y="0"
           width="100%"
           height="100%" /></clipPath><rect
         x="197.60001"
         y="40.900002"
         clip-path="url(#SVGID_34_)"
         width="46.799999"
         height="48.700001"
         id="rect155" /></g></g><g
     transform="translate(-74.9,-50.9)"
     clip-path="url(#SVGID_6_)"
     id="g157"><defs
       id="defs159"><polygon
         id="SVGID_35_"
         points="246.9,60.4 255.1,79.6 260.7,79.6 266.8,50.9 261.3,50.9 257.2,70.2 249.3,50.9 243.4,50.9 237.4,79.6 242.9,79.6 " /></defs><clipPath
       id="SVGID_36_"><use
         xlink:href="#SVGID_35_"
         overflow="visible"
         id="use163"
         style="overflow:visible"
         x="0"
         y="0"
         width="100%"
         height="100%" /></clipPath><g
       clip-path="url(#SVGID_36_)"
       id="g165"><defs
         id="defs167"><rect
           id="SVGID_37_"
           x="16.299999"
           y="15.5"
           width="332"
           height="100" /></defs><clipPath
         id="SVGID_38_"><use
           xlink:href="#SVGID_37_"
           overflow="visible"
           id="use171"
           style="overflow:visible"
           x="0"
           y="0"
           width="100%"
           height="100%" /></clipPath><rect
         x="227.39999"
         y="40.900002"
         clip-path="url(#SVGID_38_)"
         width="49.400002"
         height="48.700001"
         id="rect173" /></g></g><g
     transform="translate(-74.9,-50.9)"
     clip-path="url(#SVGID_6_)"
     id="g175"><defs
       id="defs177"><polygon
         id="SVGID_39_"
         points="269.7,79.6 281.6,59 284.4,79.6 290.5,79.6 286.2,50.9 280.6,50.9 263.6,79.6 " /></defs><clipPath
       id="SVGID_40_"><use
         xlink:href="#SVGID_39_"
         overflow="visible"
         id="use181"
         style="overflow:visible"
         x="0"
         y="0"
         width="100%"
         height="100%" /></clipPath><g
       clip-path="url(#SVGID_40_)"
       id="g183"><defs
         id="defs185"><rect
           id="SVGID_41_"
           x="16.299999"
           y="15.5"
           width="332"
           height="100" /></defs><clipPath
         id="SVGID_42_"><use
           xlink:href="#SVGID_41_"
           overflow="visible"
           id="use189"
           style="overflow:visible"
           x="0"
           y="0"
           width="100%"
           height="100%" /></clipPath><rect
         x="253.60001"
         y="40.900002"
         clip-path="url(#SVGID_42_)"
         width="46.799999"
         height="48.700001"
         id="rect191" /></g></g></svg>
