<?xml version="1.0" encoding="UTF-8" standalone="no"?>
<svg xmlns:rdf="http://www.w3.org/1999/02/22-rdf-syntax-ns#" xmlns="http://www.w3.org/2000/svg" xml:space="preserve" version="1.1" y="0px" x="0px" xmlns:cc="http://creativecommons.org/ns#" xmlns:xlink="http://www.w3.org/1999/xlink" viewBox="0 0 330.6 98.7" xmlns:dc="http://purl.org/dc/elements/1.1/"><defs><rect id="af" y="15.5" x="16.3" height="99" width="332"/><rect id="j" y="15.5" x="16.3" height="100" width="332"/><rect id="e" y="15.5" x="16.3" height="99" width="332"/><rect id="d" y="15.5" x="17.2" height="98.7" width="330.6"/><rect id="b" y="15.5" x="16.3" height="100" width="332"/><polygon id="ao" points="82.6 69.9 86.4 66.8 92.7 79.7 99.7 79.7 91.2 63 106.2 50.9 98 50.9 84.2 62.3 86.6 50.9 80.9 50.9 74.9 79.6 80.5 79.6"/><rect id="am" y="15.5" x="16.3" height="100" width="332"/><polygon id="ak" points="128.6 79.6 124.3 50.9 118.7 50.9 101.8 79.6 107.8 79.6 119.7 59 122.5 79.6"/><rect id="ai" y="15.5" x="16.3" height="100" width="332"/><polygon id="ag" points="141.3 56.1 136.2 79.6 142 79.6 147.1 56.1 156.1 56.1 157.2 50.9 133.3 50.9 132.2 56.1"/><rect id="ad" y="15.5" x="16.3" height="100" width="332"/><polygon id="ab" points="176.9 79.6 172.6 50.9 167 50.9 150.1 79.6 156.1 79.6 168 59 170.8 79.6"/><rect id="z" y="15.5" x="16.3" height="100" width="332"/><polygon id="x" points="188.3 69.9 192.2 66.8 198.5 79.7 205.5 79.7 197.1 63 212 50.9 203.8 50.9 189.9 62.3 192.3 50.9 186.7 50.9 180.6 79.6 186.3 79.6"/><rect id="v" y="15.5" x="16.3" height="100" width="332"/><polygon id="s" points="230.1 50.9 224.5 50.9 207.6 79.6 213.7 79.6 225.5 59 228.3 79.6 234.4 79.6"/><rect id="q" y="15.5" x="16.3" height="100" width="332"/><polygon id="o" points="246.9 60.4 255.1 79.6 260.7 79.6 266.8 50.9 261.3 50.9 257.2 70.2 249.3 50.9 243.4 50.9 237.4 79.6 242.9 79.6"/><rect id="m" y="15.5" x="16.3" height="100" width="332"/><polygon id="k" points="286.2 50.9 280.6 50.9 263.6 79.6 269.7 79.6 281.6 59 284.4 79.6 290.5 79.6"/><rect id="h" y="15.5" x="16.3" height="100" width="332"/></defs><g opacity=".6" enable-background="new    " transform="translate(-17.2 -15.5)"><clipPath id="u"><use xlink:href="#af" height="100%" width="100%" y="0" x="0" overflow="visible"/></clipPath><g clip-path="url(#u)"><clipPath id="f"><use xlink:href="#j" height="100%" width="100%" y="0" x="0" overflow="visible"/></clipPath><g enable-background="new    " clip-path="url(#f)"><clipPath id="a"><use xlink:href="#e" height="100%" width="100%" y="0" x="0" overflow="visible"/></clipPath><g clip-path="url(#a)"><clipPath id="c"><use xlink:href="#d" height="100%" width="100%" y="0" x="0" overflow="visible"/></clipPath><g clip-path="url(#c)"><clipPath id="ap"><use xlink:href="#b" height="100%" width="100%" y="0" x="0" overflow="visible"/></clipPath><rect clip-path="url(#ap)" height="98.7" width="330.6" stroke="#000" stroke-miterlimit="10" y="15.5" x="17.2" stroke-width="12" fill="none"/></g></g><g clip-path="url(#a)"><clipPath id="an"><use xlink:href="#ao" height="100%" width="100%" y="0" x="0" overflow="visible"/></clipPath><g clip-path="url(#an)"><clipPath id="al"><use xlink:href="#am" height="100%" width="100%" y="0" x="0" overflow="visible"/></clipPath><rect clip-path="url(#al)" height="48.8" width="51.3" y="40.9" x="64.9"/></g></g><g clip-path="url(#a)"><clipPath id="aj"><use xlink:href="#ak" height="100%" width="100%" y="0" x="0" overflow="visible"/></clipPath><g clip-path="url(#aj)"><clipPath id="ah"><use xlink:href="#ai" height="100%" width="100%" y="0" x="0" overflow="visible"/></clipPath><rect clip-path="url(#ah)" height="48.7" width="46.8" y="40.9" x="91.8"/></g></g><g clip-path="url(#a)"><clipPath id="ae"><use xlink:href="#ag" height="100%" width="100%" y="0" x="0" overflow="visible"/></clipPath><g clip-path="url(#ae)"><clipPath id="ac"><use xlink:href="#ad" height="100%" width="100%" y="0" x="0" overflow="visible"/></clipPath><rect clip-path="url(#ac)" height="48.7" width="45" y="40.9" x="122.2"/></g></g><g clip-path="url(#a)"><clipPath id="aa"><use xlink:href="#ab" height="100%" width="100%" y="0" x="0" overflow="visible"/></clipPath><g clip-path="url(#aa)"><clipPath id="y"><use xlink:href="#z" height="100%" width="100%" y="0" x="0" overflow="visible"/></clipPath><rect clip-path="url(#y)" height="48.7" width="46.8" y="40.9" x="140.1"/></g></g><g clip-path="url(#a)"><clipPath id="w"><use xlink:href="#x" height="100%" width="100%" y="0" x="0" overflow="visible"/></clipPath><g clip-path="url(#w)"><clipPath id="t"><use xlink:href="#v" height="100%" width="100%" y="0" x="0" overflow="visible"/></clipPath><rect clip-path="url(#t)" height="48.8" width="51.4" y="40.9" x="170.6"/></g></g><g clip-path="url(#a)"><clipPath id="r"><use xlink:href="#s" height="100%" width="100%" y="0" x="0" overflow="visible"/></clipPath><g clip-path="url(#r)"><clipPath id="p"><use xlink:href="#q" height="100%" width="100%" y="0" x="0" overflow="visible"/></clipPath><rect clip-path="url(#p)" height="48.7" width="46.8" y="40.9" x="197.6"/></g></g><g clip-path="url(#a)"><clipPath id="n"><use xlink:href="#o" height="100%" width="100%" y="0" x="0" overflow="visible"/></clipPath><g clip-path="url(#n)"><clipPath id="l"><use xlink:href="#m" height="100%" width="100%" y="0" x="0" overflow="visible"/></clipPath><rect clip-path="url(#l)" height="48.7" width="49.4" y="40.9" x="227.4"/></g></g><g clip-path="url(#a)"><clipPath id="i"><use xlink:href="#k" height="100%" width="100%" y="0" x="0" overflow="visible"/></clipPath><g clip-path="url(#i)"><clipPath id="g"><use xlink:href="#h" height="100%" width="100%" y="0" x="0" overflow="visible"/></clipPath><rect clip-path="url(#g)" height="48.7" width="46.8" y="40.9" x="253.6"/></g></g></g></g></g></svg>
